<svg xmlns="http://www.w3.org/2000/svg" viewBox="0 0 262.39 262.39"><g id="Layer_2" data-name="Layer 2"><g id="Capa_1" data-name="Capa 1"><path d="M245.63,103.39h-9.91a107.54,107.54,0,0,0-11-26.43l7-7a16.75,16.75,0,0,0,0-23.7L216.16,30.62a16.76,16.76,0,0,0-23.71,0l-7,7a107.13,107.13,0,0,0-26.43-11V16.76A16.77,16.77,0,0,0,142.24,0H120.15a16.76,16.76,0,0,0-16.76,16.76v9.92A107.13,107.13,0,0,0,77,37.63l-7-7a16.75,16.75,0,0,0-23.7,0L30.62,46.24a16.75,16.75,0,0,0,0,23.7l7,7a107.13,107.13,0,0,0-11,26.43H16.76A16.76,16.76,0,0,0,0,120.15v22.09A16.77,16.77,0,0,0,16.76,159h9.92a107.13,107.13,0,0,0,11,26.43l-7,7a16.76,16.76,0,0,0,0,23.71l15.62,15.62a16.75,16.75,0,0,0,23.7,0l7-7a107.54,107.54,0,0,0,26.43,11v9.91a16.76,16.76,0,0,0,16.76,16.76h22.09A16.76,16.76,0,0,0,159,245.63v-9.91a107.54,107.54,0,0,0,26.43-11l7,7a16.75,16.75,0,0,0,23.7,0l15.62-15.62a16.77,16.77,0,0,0,0-23.71l-7-7A107.9,107.9,0,0,0,235.72,159h9.91a16.76,16.76,0,0,0,16.76-16.77V120.15A16.76,16.76,0,0,0,245.63,103.39ZM131.2,191.19a60,60,0,1,1,60-60A60.06,60.06,0,0,1,131.2,191.19Z"/><path d="M131.2,101.2a30,30,0,1,0,30,30A30,30,0,0,0,131.2,101.2Z"/></g></g></svg>