<svg width="13" height="13" viewBox="0 0 13 13" fill="none" xmlns="http://www.w3.org/2000/svg">
<g clip-path="url(#clip0_117_2)">
<path d="M10.3317 5.90269V11.3797H1.61664V2.64368H7.10992L8.72706 1.02344H1.84673C1.35729 1.02344 0.887873 1.21816 0.541601 1.56483C0.195329 1.9115 0.000529123 2.38176 0 2.87229L0 11.1516C0.000661286 11.6421 0.195519 12.1122 0.541777 12.4587C0.888035 12.8053 1.35738 13 1.84673 13H10.1051C10.5945 13 11.0638 12.8053 11.4101 12.4587C11.7563 12.1122 11.9512 11.6421 11.9519 11.1516V4.28144L10.3317 5.90269Z" fill="#C4C4C4"/>
<path d="M4.74173 6.54491L3.93066 9.08809L6.46768 8.27421L11.6186 3.11483L9.89162 1.38403L4.74173 6.54491ZM10.3029 2.55607L5.91066 6.95811L5.59522 6.64196L9.98745 2.23993L10.3029 2.55607Z" fill="#C4C4C4"/>
<path d="M10.5593 0.714844L12.2862 2.44614L11.8959 2.83732L10.1685 1.10652L10.5593 0.714844Z" fill="#C4C4C4"/>
<path d="M11.2732 -0.000585506L10.8828 0.390625L12.61 2.12171L13.0004 1.7305L11.2732 -0.000585506Z" fill="#C4C4C4"/>
</g>
<defs>
<clipPath id="clip0_117_2">
<rect width="13" height="13" fill="white"/>
</clipPath>
</defs>
</svg>
