<svg width="25" height="25" viewBox="0 0 25 25" fill="none" xmlns="http://www.w3.org/2000/svg">
<g clip-path="url(#clip0_96_27)">
<path d="M25 9.19012V24.5001C24.9974 24.6336 24.9433 24.7608 24.8494 24.8543C24.7555 24.9478 24.6292 25.0001 24.4976 25.0001H16.4992C16.4337 25.0014 16.3686 24.9895 16.3077 24.965C16.2468 24.9404 16.1913 24.9038 16.1445 24.8573C16.0978 24.8107 16.0606 24.7551 16.0352 24.6938C16.0099 24.6325 15.9968 24.5666 15.9968 24.5001V15.6901H9.00313V24.5001C9.00055 24.6336 8.94648 24.7608 8.85255 24.8543C8.75862 24.9478 8.63231 25.0001 8.50076 25.0001H0.502338C0.436836 25.0014 0.371731 24.9895 0.310835 24.965C0.249938 24.9404 0.194475 24.9038 0.147693 24.8573C0.10091 24.8107 0.0637484 24.7551 0.0383836 24.6938C0.0130188 24.6325 -3.9407e-05 24.5666 -2.63026e-05 24.5001V9.19012C-0.00739804 9.1047 0.00789993 9.01885 0.0442774 8.94147C0.0806548 8.86409 0.136784 8.79802 0.206829 8.75012L12.1946 0.100116C12.2835 0.0350272 12.3904 0 12.5 0C12.6096 0 12.7164 0.0350272 12.8053 0.100116L24.7833 8.75012C24.8544 8.79755 24.9119 8.86324 24.95 8.94051C24.988 9.01778 25.0053 9.10389 25 9.19012Z" fill="#C5C5C4"/>
</g>
<defs>
<clipPath id="clip0_96_27">
<rect width="25" height="25" fill="white"/>
</clipPath>
</defs>
</svg>
